<svg viewBox="0 0 128 128" xmlns="http://www.w3.org/2000/svg"><path d="M31.9 95.6C23.9 87.5 19 76.3 19 64c0-24.9 20.1-45 45-45s45 20.1 45 45-20.1 45-45 45H19z" fill="#fff"/><path d="M64 112H19c-1.2 0-2.3-.7-2.8-1.8s-.2-2.4.6-3.3l11-11.4C20.2 86.8 16 75.7 16 64c0-26.5 21.5-48 48-48 1.3 0 2.5 0 3.8.1 1.7.1 2.9 1.6 2.8 3.2-.1 1.7-1.6 2.9-3.2 2.8-1.2-.1-2.3-.1-3.4-.1-23.2 0-42 18.8-42 42 0 11.1 4.3 21.6 12.1 29.5 1.1 1.2 1.2 3 0 4.2l-8 8.3H64c23.2 0 42-18.8 42-42 0-1.1 0-2.2-.1-3.3-.1-1.7 1.1-3.1 2.8-3.2 1.6-.1 3.1 1.1 3.2 2.8.1 1.2.1 2.5.1 3.7 0 26.5-21.5 48-48 48z" fill="#444b54"/><circle cx="99" cy="29" fill="#1fd4af" r="20"/><path d="M106 26h-4v-4c0-1.7-1.3-3-3-3s-3 1.3-3 3v4h-4c-1.7 0-3 1.3-3 3s1.3 3 3 3h4v4c0 1.7 1.3 3 3 3s3-1.3 3-3v-4h4c1.7 0 3-1.3 3-3s-1.3-3-3-3z" fill="#fff"/><path d="M81 58H47c-1.7 0-3-1.3-3-3s1.3-3 3-3h34c1.7 0 3 1.3 3 3s-1.3 3-3 3zM66 76H47c-1.7 0-3-1.3-3-3s1.3-3 3-3h19c1.7 0 3 1.3 3 3s-1.3 3-3 3zm16 0h-1c-1.7 0-3-1.3-3-3s1.3-3 3-3h1c1.7 0 3 1.3 3 3s-1.3 3-3 3z" fill="#444b54"/></svg>