<svg viewBox="0 0 128 128" xmlns="http://www.w3.org/2000/svg"><path d="M101.1 105.6C93.7 92.7 79.9 84 64 84s-29.7 8.7-37.1 21.6l.1 3.4h74z" fill="#fff"/><circle cx="64" cy="50" fill="#fff" r="20"/><path d="M64 73c-12.7 0-23-10.3-23-23s10.3-23 23-23 23 10.3 23 23-10.3 23-23 23zm0-40c-9.4 0-17 7.6-17 17s7.6 17 17 17 17-7.6 17-17-7.6-17-17-17zm-37.1 75.6c-.5 0-1-.1-1.5-.4-1.4-.8-1.9-2.6-1.1-4.1C32.4 89.9 47.6 81 64 81c5.5 0 10.8 1 15.9 2.8 1.6.6 2.3 2.3 1.8 3.9-.6 1.6-2.3 2.3-3.9 1.8-4.4-1.6-9-2.5-13.8-2.5-14.2 0-27.4 7.7-34.5 20.1-.5.9-1.5 1.5-2.6 1.5z" fill="#444b54"/><path d="M125.5 114.4l-21.2-35.3c-.9-1.5-2.5-2.4-4.3-2.4s-3.4.9-4.3 2.4l-21.2 35.3c-.9 1.6-1 3.4-.1 5s2.5 2.5 4.4 2.5h42.3c1.8 0 3.5-.9 4.4-2.5.9-1.5.9-3.4 0-5z" fill="#fcca3d"/><path d="M100 105c-1.7 0-3-1.3-3-3V92c0-1.7 1.3-3 3-3s3 1.3 3 3v10c0 1.7-1.3 3-3 3zm0 10c-.8 0-1.6-.3-2.1-.9-.1-.1-.3-.3-.4-.5s-.2-.3-.3-.5-.1-.4-.2-.6c0-.2-.1-.4-.1-.6 0-.8.3-1.6.9-2.1 1.1-1.1 3.1-1.1 4.2 0 .6.6.9 1.3.9 2.1 0 .2 0 .4-.1.6 0 .2-.1.4-.2.6s-.2.4-.3.5c-.1.2-.2.3-.4.5-.3.6-1.1.9-1.9.9z" fill="#fff"/></svg>