<svg xmlns="http://www.w3.org/2000/svg" viewBox="0 0 128 128"><path d="M64 21.5c23.472 0 42.5 19.028 42.5 42.5S87.472 106.5 64 106.5 21.5 87.472 21.5 64 40.528 21.5 64 21.5" fill="#F7F7FB"/><path d="M64 21.6c-1.8 0-3.6.1-5.3.3C79.6 24.5 95.8 42.4 95.8 64c0 21.43-15.947 39.218-36.608 42.231 1.579.178 3.182.269 4.808.269 23.454 0 42.472-19.002 42.5-42.45C106.472 40.574 87.383 21.6 64 21.6" fill="#DFDFE3"/><path d="M64 109c-24.8 0-45-20.2-45-45s20.2-45 45-45 45 20.2 45 45-20.2 45-45 45zm0-84.9C42 24.1 24.1 42 24.1 64S42 103.9 64 103.9 103.9 86 103.9 64 86 24.1 64 24.1z" fill="#454B54"/><path d="M64 48.5c-1.7 0-3 1.3-3 3s1.3 3 3 3 3-1.3 3-3c0-1.6-1.3-3-3-3zm0 40.2c-1.4 0-2.5-1.1-2.5-2.5V62.6c0-1.4 1.1-2.5 2.5-2.5s2.5 1.1 2.5 2.5v23.5c0 1.4-1.1 2.6-2.5 2.6z" fill="#454B54"/></svg>