<svg xmlns="http://www.w3.org/2000/svg" viewBox="0 0 128 128"><circle cx="64" cy="64" r="50" fill="#FFFFFF"/><path d="M64 117c-29.2 0-53-23.8-53-53s23.8-53 53-53 53 23.8 53 53-23.8 53-53 53zm0-100c-25.9 0-47 21.1-47 47s21.1 47 47 47 47-21.1 47-47-21.1-47-47-47z" fill="#444B54"/><path d="M86.5 67h-30c-1.7 0-3-1.3-3-3s1.3-3 3-3h30c1.7 0 3 1.3 3 3s-1.3 3-3 3zm-45 0c-.2 0-.4 0-.6-.1-.2 0-.4-.1-.6-.2-.2-.1-.3-.2-.5-.3-.2-.1-.3-.2-.4-.4-.1-.1-.3-.3-.4-.5-.1-.2-.2-.3-.3-.5-.1-.2-.1-.4-.2-.6 0-.2-.1-.4-.1-.6 0-.8.3-1.6.9-2.1.7-.7 1.7-1 2.7-.8.2 0 .4.1.6.2.2.1.4.2.5.3.2.1.3.2.4.4.6.6.9 1.3.9 2.1 0 .2 0 .4-.1.6 0 .2-.1.4-.2.6-.1.2-.2.4-.3.5-.1.2-.2.3-.4.5-.1.1-.3.3-.5.4-.2.1-.3.2-.5.3-.2.1-.4.1-.6.2h-.3zm45 15h-30c-1.7 0-3-1.3-3-3s1.3-3 3-3h30c1.7 0 3 1.3 3 3s-1.3 3-3 3zm-45 0c-.2 0-.4 0-.6-.1-.2 0-.4-.1-.6-.2-.2-.1-.3-.2-.5-.3-.2-.1-.3-.2-.4-.4-.6-.6-.9-1.3-.9-2.1s.3-1.6.9-2.1c.7-.7 1.7-1 2.7-.8.2 0 .4.1.6.2.2.1.4.2.5.3.2.1.3.2.4.4.1.1.3.3.4.5.1.2.2.3.3.5.1.2.1.4.2.6 0 .2.1.4.1.6 0 .8-.3 1.6-.9 2.1l-.4.4c-.2.1-.3.2-.5.3-.2.1-.4.1-.6.2-.3-.1-.5-.1-.7-.1zm45-30h-30c-1.7 0-3-1.3-3-3s1.3-3 3-3h30c1.7 0 3 1.3 3 3s-1.3 3-3 3zm-45 0c-.2 0-.4 0-.6-.1-.2 0-.4-.1-.6-.2-.2-.1-.3-.2-.5-.3-.2-.1-.3-.2-.4-.4-.6-.6-.9-1.3-.9-2.1s.3-1.6.9-2.1l.4-.4c.2-.1.3-.2.5-.3.2-.1.4-.1.6-.2 1-.2 2 .1 2.7.8.1.1.3.3.4.5.1.2.2.3.3.5.1.2.1.4.2.6 0 .2.1.4.1.6 0 .8-.3 1.6-.9 2.1-.6.7-1.4 1-2.2 1z" fill="#444B54"/></svg>