<svg enable-background="new 0 0 128 128" viewBox="0 0 128 128" xmlns="http://www.w3.org/2000/svg"><path d="m86.2 109h-44.4c-9.8 0-17.8-8-17.8-17.8v-44.4c0-9.8 8-17.8 17.8-17.8h44.4c9.8 0 17.8 8 17.8 17.8v44.4c0 9.8-8 17.8-17.8 17.8z" fill="#ff697b"/><path d="m24 46.8v11.2h80v-11.2c0-9.8-8-17.8-17.8-17.8h-44.4c-9.8 0-17.8 8-17.8 17.8z" fill="#fff"/><path d="m86.2 112h-44.4c-11.5 0-20.8-9.3-20.8-20.8v-44.4c0-11.5 9.3-20.8 20.8-20.8h44.4c11.5 0 20.8 9.3 20.8 20.8v44.4c0 11.5-9.3 20.8-20.8 20.8zm-44.4-80c-8.2 0-14.8 6.6-14.8 14.8v44.4c0 8.1 6.6 14.8 14.8 14.8h44.4c8.1 0 14.8-6.6 14.8-14.8v-44.4c0-8.1-6.6-14.8-14.8-14.8z" fill="#444b54"/><circle cx="64" cy="69" fill="#fff" r="15"/><g fill="#444b54"><path d="m64 87c-9.9 0-18-8.1-18-18 0-1.7 1.3-3 3-3s3 1.3 3 3c0 6.6 5.4 12 12 12s12-5.4 12-12-5.4-12-12-12c-1.7 0-3-1.3-3-3s1.3-3 3-3c9.9 0 18 8.1 18 18s-8.1 18-18 18z"/><path d="m53.8 60.9c-.2 0-.4 0-.6-.1s-.4-.1-.6-.2-.4-.2-.5-.3c-.2-.1-.3-.2-.5-.4-.1-.1-.3-.3-.4-.5s-.2-.3-.3-.5-.1-.4-.2-.6c0-.2-.1-.4-.1-.6s0-.4.1-.6c0-.2.1-.4.2-.6s.2-.4.3-.5c.1-.2.2-.3.4-.5.1-.1.3-.3.5-.4s.3-.2.5-.3.4-.1.6-.2c.4-.1.8-.1 1.2 0 .2 0 .4.1.6.2s.4.2.5.3c.2.1.3.2.4.4.1.1.3.3.4.5s.2.3.3.5.1.4.2.6c0 .2.1.4.1.6s0 .4-.1.6c0 .2-.1.4-.2.6s-.2.4-.3.5c-.1.2-.2.3-.4.5-.1.1-.3.3-.4.4-.2.1-.3.2-.5.3s-.4.1-.6.2-.4.1-.6.1z"/><circle cx="86" cy="47" r="4"/><path d="m19 112.3c-1.6 0-3-1.3-3-3s1.3-3 3-3l90-.5c1.6 0 3 1.3 3 3s-1.3 3-3 3z"/><path d="m124 111.8c-.8 0-1.6-.3-2.1-.9-.1-.1-.3-.3-.4-.5s-.2-.3-.3-.5-.1-.4-.2-.6c0-.2-.1-.4-.1-.6s0-.4.1-.6c0-.2.1-.4.2-.6s.2-.4.3-.5c.1-.2.2-.3.4-.5.1-.1.3-.3.4-.4.2-.1.3-.2.5-.3s.4-.1.6-.2c.4-.1.8-.1 1.2 0 .2 0 .4.1.6.2s.4.2.5.3c.2.1.3.2.4.4.6.6.9 1.3.9 2.1 0 .2 0 .4-.1.6 0 .2-.1.4-.2.6s-.2.4-.3.5c-.1.2-.2.3-.4.5-.4.7-1.2 1-2 1z"/></g></svg>