<svg xmlns="http://www.w3.org/2000/svg" viewBox="0 0 128 128"><path d="M101.1 105.6C93.7 92.7 79.9 84 64 84c-15.9 0-29.7 8.7-37.1 21.6l.1 3.4h74l.1-3.4z" fill="#FFFFFF"/><path d="M78.8 89.7c-.3 0-.7-.1-1-.2-4.4-1.6-9-2.5-13.8-2.5-1.7 0-3-1.3-3-3s1.3-3 3-3c5.5 0 10.8 1 15.9 2.8 1.6.6 2.3 2.3 1.8 3.9-.5 1.2-1.7 2-2.9 2z" fill="#444B54"/><path d="M26.9 108.6c-.5 0-1-.1-1.5-.4-1.4-.8-1.9-2.6-1.1-4.1C32.4 89.9 47.6 81 64 81c1.7 0 3 1.3 3 3s-1.3 3-3 3c-14.2 0-27.4 7.7-34.5 20.1-.5.9-1.5 1.5-2.6 1.5z" fill="#444B54"/><circle cx="64" cy="50" r="20" fill="#FFFFFF"/><path d="M64 73c-12.7 0-23-10.3-23-23s10.3-23 23-23 23 10.3 23 23-10.3 23-23 23zm0-40c-9.4 0-17 7.6-17 17s7.6 17 17 17 17-7.6 17-17-7.6-17-17-17z" fill="#444B54"/><g><path d="M107.9 109h-14c-1.7 0-3-1.3-3-3s1.3-3 3-3h14c1.7 0 3 1.3 3 3s-1.3 3-3 3z" fill="#FFFFFF"/><path d="M81 106c0-11 9-20 20-20 5.2 0 10 2 13.5 5.3.4.4-.7 1-.9 1.6-.1.6.7 1.3 1 1.7.4.5 1.5 1.6 2.4 1.8.6.1 1.1-.7 1.2-.4 1.7 2.9 2.7 6.4 2.7 10 0 11-9 20-20 20S81 117 81 106z" fill="#1FD4AF"/><path d="M114.5 91.3l-13.4 15-4.8-6.2c-1-1.3-2.9-1.5-4.2-.5-1.3 1-1.5 2.9-.5 4.2l7 9c.5.7 1.4 1.1 2.3 1.2h.1c.9 0 1.7-.4 2.2-1l15.1-17c-1-1.7-2.3-3.3-3.8-4.7z" fill="#FFFFFF"/></g></svg>