<svg enable-background="new 0 0 128 128" viewBox="0 0 128 128" xmlns="http://www.w3.org/2000/svg"><circle cx="64" cy="64" fill="#fff" r="50"/><g fill="#444b54"><path d="m64 117c-29.2 0-53-23.8-53-53s23.8-53 53-53 53 23.8 53 53-23.8 53-53 53zm0-100c-25.9 0-47 21.1-47 47s21.1 47 47 47 47-21.1 47-47-21.1-47-47-47z"/><path d="m64 77c-.8 0-1.5-.3-2.1-.9l-10-10c-1.2-1.2-1.2-3.1 0-4.2 1.2-1.2 3.1-1.2 4.2 0l7.9 7.9 7.9-7.9c1.2-1.2 3.1-1.2 4.2 0 1.2 1.2 1.2 3.1 0 4.2l-10 10c-.6.6-1.3.9-2.1.9z"/><path d="m82 59c-.2 0-.4 0-.6-.1-.2 0-.4-.1-.6-.2s-.3-.2-.5-.3-.3-.2-.5-.4c-.1-.1-.3-.3-.4-.5s-.2-.3-.3-.5-.1-.4-.2-.6c0-.2-.1-.4-.1-.6s0-.4.1-.6c0-.2.1-.4.2-.6s.2-.3.3-.5.2-.3.4-.5c1.1-1.1 3.1-1.1 4.2 0 .1.1.3.3.4.5s.2.3.3.5.1.4.2.6c0 .2.1.4.1.6s0 .4-.1.6c0 .2-.1.4-.2.6s-.2.4-.3.5c-.1.2-.2.3-.4.5-.4.7-1.2 1-2 1z"/></g></svg>