<svg enable-background="new 0 0 128 128" viewBox="0 0 128 128" xmlns="http://www.w3.org/2000/svg"><circle cx="64" cy="64" fill="#fff" r="50"/><g fill="#444b54"><path d="m64 117c-29.2 0-53-23.8-53-53s23.8-53 53-53 53 23.8 53 53-23.8 53-53 53zm0-100c-25.9 0-47 21.1-47 47s21.1 47 47 47 47-21.1 47-47-21.1-47-47-47z"/><path d="m76.5 67c-.6 0-1.3-.2-1.8-.6l-20-15c-1.3-1-1.6-2.9-.6-4.2s2.9-1.6 4.2-.6l20 15c1.3 1 1.6 2.9.6 4.2-.6.8-1.5 1.2-2.4 1.2z"/><path d="m56.5 82c-.9 0-1.8-.4-2.4-1.2-1-1.3-.7-3.2.6-4.2l20-15c1.3-1 3.2-.7 4.2.6s.7 3.2-.6 4.2l-20 15c-.5.4-1.2.6-1.8.6z"/></g></svg>