<svg enable-background="new 0 0 128 128" viewBox="0 0 128 128" xmlns="http://www.w3.org/2000/svg"><path d="m107 73h-1c-4.1-19.4-21.4-34-42-34s-37.9 14.6-42 34h-1c-7.2 0-13 5.8-13 13s5.8 13 13 13h3.5c6.6 15.3 21.8 26 39.5 26s32.9-10.7 39.5-26h3.5c7.2 0 13-5.8 13-13s-5.8-13-13-13z" fill="#fff"/><circle cx="64" cy="16" fill="#06a18c" r="13"/><path d="m64 32c-8.8 0-16-7.2-16-16s7.2-16 16-16 16 7.2 16 16-7.2 16-16 16zm0-26c-5.5 0-10 4.5-10 10s4.5 10 10 10 10-4.5 10-10-4.5-10-10-10z" fill="#444b54"/><path d="m22 54.5c0-22.9 18.6-31.5 41.5-31.5s41.5 8.6 41.5 31.5" fill="#8fe5b5"/><path d="m99 57.5c-1.7 0-3-1.3-3-3 0-9-3.8-15.2-11.7-18.8-1.5-.7-2.2-2.5-1.5-4s2.5-2.2 4-1.5c10 4.6 15.2 13 15.2 24.3 0 1.7-1.3 3-3 3z" fill="#06a18c"/><circle cx="44" cy="85" fill="#444b54" r="4"/><circle cx="84" cy="85" fill="#444b54" r="4"/><path d="m102 52h-75c-5.5 0-10 4.5-10 10 0 5.5 4.5 10 10 10h75c5.5 0 10-4.5 10-10 0-5.5-4.5-10-10-10z" fill="#06a18c"/><g fill="#444b54"><path d="m112.3 69.9c1.7-2.2 2.7-4.9 2.7-7.9 0-5.1-2.9-9.5-7.2-11.6-1.9-19.4-17.8-30.4-44.3-30.4-27 0-43.1 11.5-44.4 31.7-3.1 2.4-5.1 6.1-5.1 10.3 0 7.2 5.8 13 13 13h80c5.5 0 10 4.5 10 10s-4.5 10-10 10h-3.5c-1.2 0-2.3.7-2.8 1.8-6.3 14.7-20.7 24.2-36.7 24.2-16.1 0-30.5-9.5-36.8-24.3-.6-1.4-2.2-2.2-3.7-1.7h-2.5c-5.5 0-10-4.5-10-10 0-2.3.7-4.4 2.2-6.2 1-1.3.8-3.2-.5-4.2s-3.2-.8-4.2.5c-2.3 2.8-3.5 6.3-3.5 9.9 0 8.8 7.2 16 16 16h1.6c7.7 15.9 23.7 26 41.4 26s33.8-10.1 41.4-26h1.6c8.8 0 16-7.2 16-16 0-7-4.5-12.9-10.7-15.1zm-48.8-43.9c13.2 0 34.7 3.1 38.1 23h-74.6c-.5 0-1.1 0-1.6.1 3.3-19.9 24.8-23.1 38.1-23.1zm-36.5 43c-3.9 0-7-3.1-7-7s3.1-7 7-7h75c3.9 0 7 3.1 7 7s-3.1 7-7 7z"/><path d="m64 111c-5.1 0-9.8-3-11.9-7.7-.3-.7-.3-1.6 0-2.3s.9-1.3 1.6-1.7l.1-.1c.4-.2.8-.2 1.2-.2h18 .1c.4 0 .9.1 1.3.2 1.5.6 2.2 2.4 1.6 3.9-2 4.8-6.7 7.9-12 7.9z"/></g></svg>