<svg viewBox="0 0 128 128" xmlns="http://www.w3.org/2000/svg"><path d="M90.98 23H36c-8.837 0-16 7.163-16 16v56c0 8.837 7.163 16 16 16h56c8.837 0 16-7.163 16-16V40.02z" fill="#c7d6e2"/><path d="M96 94a5 5 0 0 1-5 5H37a5 5 0 0 1-5-5V40a5 5 0 0 1 5-5h59z" fill="#f6f6fa"/><path d="M108 40.02l-12 12v12.728l12-12z" fill="#abb8c3"/><path d="M96 52.02L75.52 72.5 52 79l.005 3 25.737-.692a8.992 8.992 0 0 0 3.52-1.893c.154-.122.378-.308.62-.55L96 64.748z" fill="#d3d3d7"/><path d="M100.514 13.466L58.5 55.48 55 68.25l7.875 7.875L75.52 72.5l42.014-42.014a5.005 5.005 0 0 0 0-7.079l-9.941-9.941a5.005 5.005 0 0 0-7.079 0z" fill="#fff"/><path d="M58.498 55.48l35.489-35.49 17.02 17.02L75.518 72.5z" fill="#fdeeef"/><path d="M102.367 28.367l-35.489 35.49L75.52 72.5 111 37z" fill="#f38fa6"/><g fill="#444b54"><path d="M92 114H36c-10.477 0-19-8.523-19-19V39c0-10.477 8.523-19 19-19h37a3 3 0 1 1 0 6H36c-7.168 0-13 5.832-13 13v56c0 7.168 5.832 13 13 13h56c7.168 0 13-5.832 13-13V40a3 3 0 1 1 6 0v55c0 10.477-8.523 19-19 19z"/><path d="M91 102H37c-4.411 0-8-3.589-8-8V40c0-4.411 3.589-8 8-8h24a3 3 0 1 1 0 6H37c-1.103 0-2 .897-2 2v54c0 1.103.897 2 2 2h54c1.103 0 2-.897 2-2V52a3 3 0 1 1 6 0v42c0 4.411-3.589 8-8 8z"/><path d="M75.52 75.5a2.996 2.996 0 0 1-2.121-.879l-17.02-17.02a3 3 0 0 1 0-4.242l42.014-42.014c3.123-3.12 8.202-3.119 11.321 0l9.941 9.942c1.513 1.512 2.346 3.522 2.346 5.66s-.833 4.148-2.346 5.661L77.641 74.621a3 3 0 0 1-2.121.879zM62.743 55.48L75.52 68.258l39.894-39.893c.379-.379.588-.883.588-1.418a1.99 1.99 0 0 0-.588-1.417l-9.941-9.942a2.01 2.01 0 0 0-2.837 0z"/><path d="M111 40a2.99 2.99 0 0 1-2.121-.879l-17-17a2.998 2.998 0 0 1 0-4.242 2.998 2.998 0 0 1 4.242 0l17 17A2.998 2.998 0 0 1 111 40zM51.998 82.001a3.001 3.001 0 0 1-.788-5.896l23.375-6.375a3.001 3.001 0 0 1 1.579 5.789L52.79 81.895a3.018 3.018 0 0 1-.792.106zm3.003-10.75a3 3 0 0 1-2.893-3.802l3.5-12.625a3 3 0 0 1 5.782 1.602l-3.5 12.625a3 3 0 0 1-2.889 2.2z"/><path d="M62.375 78.625a2.988 2.988 0 0 1-2.121-.879l-7.375-7.375a2.998 2.998 0 0 1 0-4.242 2.998 2.998 0 0 1 4.242 0l7.375 7.375a2.998 2.998 0 0 1-2.121 5.121z"/></g></svg>