<svg xmlns="http://www.w3.org/2000/svg" viewBox="0 0 128 128"><path d="M98.2 116.8l-22.2-9c-1.5 5.3-7.7 8.3-12.2 8.9v.1c-.7 0-1.9-.1-2-.1-4.3-.8-8.3-3.7-9.7-8.8l-22.2 9c22.1 7 46.1 7 68.3-.1z" fill="#FFFFFF"/><path d="M76 102v6.5c-3.5 12-20.5 12-23.9 0V102" fill="#F7EBDE"/><path d="M96.3 59.8c0-26.4-13.1-39.9-32.3-39.9S31.7 33.5 31.7 59.8c-6.2.5-4.8 14.6 2.2 13.8 2 5.7 4.2 10.4 6.5 14.4 7.9 13.5 16.9 17.5 23.5 17.5 8.5 0 21.1-6.6 30-31.8 7.2.7 8.6-13.4 2.4-13.9z" fill="#F7EBDE"/><path d="M30 120.5c-1.2 0-2.3-.7-2.8-1.9-.6-1.5.1-3.3 1.6-3.9l22.1-9c1.5-.6 3.3.1 3.9 1.6.6 1.5-.1 3.3-1.6 3.9l-22.1 9c-.4.2-.8.3-1.1.3zm68.1 0c-.4 0-.8-.1-1.1-.2l-22.1-9c-1.5-.6-2.3-2.4-1.6-3.9.6-1.5 2.4-2.3 3.9-1.6l22.1 9c1.5.6 2.3 2.4 1.6 3.9-.5 1.1-1.7 1.8-2.8 1.8z" fill="#454B54"/><path d="M64 120.5c-7.1 0-12.9-4.4-14.8-11.2-.5-1.6.5-3.3 2.1-3.7 1.6-.5 3.3.5 3.7 2.1 1.5 5.1 5.6 6.9 9.1 6.9s7.6-1.8 9.1-6.9c.5-1.6 2.1-2.5 3.7-2.1 1.6.5 2.5 2.1 2.1 3.7-2.1 6.8-7.9 11.2-15 11.2z" fill="#454B54"/><path d="M64 108.4c-5.4 0-16-2.3-25.5-18-.9-1.4-.4-3.3 1-4.1 1.4-.9 3.3-.4 4.1 1 8 13.2 16.2 15.1 20.4 15.1 5 0 17.6-2.9 27.2-29.8.6-1.6 2.3-2.4 3.8-1.8 1.6.6 2.4 2.3 1.8 3.8C86 105.1 70.3 108.4 64 108.4z" fill="#454B54"/><path d="M96.7 59.9h-.4C96.3 33.5 83.2 20 64 20c-14 0-24.8 7.2-29.6 21.4-1.7 4.9-2.6 10.6-2.7 17.1 7.712-18.368 17.85-11.435 31.374-4.503C72.521 58.84 83.621 63.684 96.7 59.9" fill="#C88B79"/><path d="M87.1 64.3c-10.899 0-20.3-4.9-28.2-9-6.8-3.6-12.7-6.6-16.9-5.1-2.8 1-5.3 4.1-7.5 9.4-.6 1.5-2.4 2.2-3.9 1.6-1.5-.6-2.2-2.4-1.6-3.9 2.9-7 6.5-11.1 11-12.8 6.7-2.4 13.7 1.2 21.7 5.4C71.5 55 82.6 60.8 95.8 57c1.601-.5 3.3.4 3.7 2 .5 1.6-.4 3.3-2 3.7-3.6 1.1-7.1 1.5-10.4 1.6" fill="#454B54"/><path d="M59.864 55.8H36.34a33.639 33.639 0 0 0-1.84 3.8c-.455 1.137-1.599 1.814-2.78 1.814-.179 0-.358-.015-.536-.047.204 5.363.505 13.239.515 13.239V74.6c0 2.601 2.1 4.7 4.7 4.7h17c2.1 0 4-1.5 4.5-3.6l1-5.9c.2-1.3 1.4-2.3 2.8-2.3s2.5 1 2.8 2.3l1 5.9c.5 2.1 2.4 3.6 4.5 3.6h17c2.6 0 4.7-2.1 4.7-4.7l.414-10.714a45.319 45.319 0 0 1-5.015.414c-10.458 0-19.537-4.512-27.234-8.5" fill="#FFFFFF"/><path d="M90.7 55.8H74.419c4.027 1.448 8.273 2.424 12.777 2.424a30.61 30.61 0 0 0 5.154-.435l.05-1.289c-.4-.5-1-.7-1.7-.7" fill="#FAF4F2"/><path d="M74.419 55.8H59.864c7.697 3.988 16.776 8.5 27.236 8.5a45.319 45.319 0 0 0 5.015-.414l.236-6.096a30.627 30.627 0 0 1-5.154.435c-4.504-.001-8.75-.978-12.778-2.425" fill="#EDEDEE"/><path d="M98.9 81.3l-8.1-1.4L96.3 48l8.1 1.4c3.5.6 5.8 4 5.2 7.5L106.3 76c-.6 3.5-3.9 5.9-7.4 5.3z" fill="#FFFFFF"/><path d="M100 84.4c-.5 0-1.1 0-1.6-.1L90.8 83c-1.6-.3-2.7-1.8-2.5-3.4l5-32c.1-.8.6-1.5 1.2-2s1.5-.6 2.3-.5l8.1 1.4c5.1.9 8.6 5.8 7.6 11l-3.4 19.1c-.6 4.5-4.5 7.8-9.1 7.8zm-5.2-6.9l4.6.8c.2 0 .4.1.6.1 1.7 0 3.1-1.2 3.4-2.9l3.4-19.1c.3-1.9-.9-3.7-2.8-4l-5.1-.9-4.1 26z" fill="#454B54"/><path d="M29.1 81.3l8.1-1.4L31.7 48l-8.1 1.4c-3.5.6-5.8 4-5.2 7.5L21.7 76c.6 3.5 3.9 5.9 7.4 5.3z" fill="#FFFFFF"/><path d="M28 84.4c-4.6 0-8.5-3.3-9.3-7.8l-3.4-19.1c-.9-5.1 2.5-10 7.6-11l8.1-1.4c.8-.1 1.6 0 2.2.5.7.5 1.1 1.2 1.2 1.9L40 79.3c.3 1.6-.8 3.2-2.4 3.5l-8.1 1.4c-.4.1-.9.2-1.5.2zm1.2-32.9l-5.2.9c-1.9.3-3.1 2.1-2.8 4l3.4 19.1c.3 1.7 1.7 2.9 3.4 2.9.2 0 .4 0 .6-.1l5.2-.9-4.6-25.9z" fill="#454B54"/><path d="M25.4 50.8h-.1c-1.7-.1-2.9-1.5-2.9-3.1C23.3 25.1 41.5 7.5 64 7.5c22.1 0 40.3 17.3 41.5 39.4.1 1.7-1.2 3.1-2.8 3.2-1.7.1-3.1-1.2-3.2-2.8-1-18.9-16.6-33.7-35.5-33.7-19.2 0-34.8 15.1-35.6 34.4 0 1.5-1.4 2.8-3 2.8z" fill="#454B54"/><path d="M96.3 62.8c-1.7 0-3-1.3-3-3 0-23.4-10.7-36.9-29.3-36.9-12.8 0-21.9 6.3-26.3 18.2-.6 1.6-2.3 2.3-3.9 1.8-1.6-.6-2.3-2.3-1.8-3.9 5.4-14.2 16.7-22.1 32-22.1 22.1 0 35.3 16 35.3 42.9 0 1.7-1.4 3-3 3z" fill="#454B54"/></svg>