<svg xmlns="http://www.w3.org/2000/svg" viewBox="0 0 128 128"><path d="M64 113c24.8-14.7 40-40.9 40-70.1V27.8L64 13 24 27.8v15.1c0 29.2 15.2 55.4 40 70.1" fill="#FFFFFF"/><path d="M64 116c-.5 0-1-.1-1.5-.4C36.5 100.2 21 73 21 42.9V27.8c0-1.3.8-2.4 2-2.8l40-14.8c.7-.2 1.4-.2 2.1 0L105 25c1.2.4 2 1.6 2 2.8v15.1c0 7.8-1.1 15.6-3.2 23.1-.4 1.6-2.1 2.5-3.7 2.1-1.6-.4-2.5-2.1-2.1-3.7 2-6.9 2.9-14.1 2.9-21.4V30L64 16.2 27 29.9v13c0 28 14.4 53.2 38.5 67.5 1.4.8 1.9 2.7 1.1 4.1-.6 1-1.6 1.5-2.6 1.5z" fill="#444B54"/><path d="M64 116c-1 0-2-.5-2.6-1.5-.8-1.4-.4-3.3 1.1-4.1 3.2-1.9 6.3-4 9.2-6.3 1.3-1 3.2-.8 4.2.5s.8 3.2-.5 4.2c-3.1 2.5-6.4 4.8-9.9 6.8-.5.3-1 .4-1.5.4z" fill="#444B54"/><path d="M64 101.6c-.6 0-1.3-.2-1.8-.6-15.9-11.7-26-29-28.6-48.5-.2-1.6.9-3.1 2.6-3.4 1.6-.2 3.1.9 3.4 2.6C41.9 68.8 50.5 84 64 94.7c15.9-12.6 25-31.4 25-51.9v-4.6L64 29 37 39c-1.6.6-3.3-.2-3.9-1.8-.6-1.6.2-3.3 1.8-3.9L63 23c.7-.2 1.4-.2 2.1 0l28 10.4c1.2.4 2 1.6 2 2.8v6.7c0 23.2-10.6 44.4-29.2 58.1-.6.4-1.3.6-1.9.6z" fill="#D0D4D8"/><g><path d="M64 25.8v72.8c17.7-13.1 28-33.4 28-55.7v-6.7L64 25.8z" fill="#D0D4D8"/></g><g><ellipse transform="rotate(-45.001 104 97.002)" cx="104" cy="97" rx="20" ry="20" fill="#FF5576"/></g><g><path d="M110.9 100h-14c-1.7 0-3-1.3-3-3s1.3-3 3-3h14c1.7 0 3 1.3 3 3s-1.3 3-3 3z" fill="#FFFFFF"/></g></svg>