<svg xmlns="http://www.w3.org/2000/svg" viewBox="0 0 128 128"><path d="M64 9c30.4 0 55 24.6 55 55s-24.6 55-55 55S9 94.4 9 64 33.6 9 64 9" fill="#F7F7FB"/><path d="M64 9c-2 0-4 .1-5.9.3-.3 0-.6.1-.8.1 27.1 3.5 48 26.6 48 54.6s-20.9 51.1-48 54.6c2.2.3 4.5.4 6.8.4 30.4 0 55-24.6 55-55C119 33.6 94.4 9 64 9" fill="#DFE0E4"/><path d="M64 122C32 122 6 96 6 64S32 6 64 6s58 26 58 58-26 58-58 58zm0-110c-28.7 0-52 23.3-52 52s23.3 52 52 52 52-23.3 52-52-23.3-52-52-52z" fill="#464C55"/><path d="M64 23.5c-21.5 0-39 17.4-39 39 0 7.9 2.4 15.3 6.4 21.4 7-10.6 18.9-17.5 32.5-17.5s25.6 7 32.5 17.5c4.1-6.1 6.4-13.5 6.4-21.4.2-21.6-17.3-39-38.8-39zm0 34.3c-8.1 0-14.6-6.5-14.6-14.6S55.9 28.6 64 28.6s14.6 6.5 14.6 14.6c0 8-6.5 14.6-14.6 14.6z" fill="#DEDFE6"/><path d="M63.4 60.4c-9.1-.4-16.1-7.7-16.1-16.7 0-9.2 7.5-16.8 16.8-16.8s16.8 7.5 16.8 16.8c0 8.7-6.8 16-15.5 16.7-.4 0-.7 0-1-.1-.4.1-.7.1-1 .1zm.6-27.5c-5.9 0-10.8 4.8-10.8 10.8 0 5.8 4.5 10.5 10.3 10.7.2 0 .4 0 .7.1.2-.1.4-.1.7-.1 5.6-.4 9.9-5.1 9.9-10.7 0-6-4.9-10.8-10.8-10.8zm30.6 52.2c-1 0-1.9-.5-2.5-1.3-6.2-9.5-16.8-15.2-28.1-15.2s-21.9 5.7-28.1 15.2c-.9 1.4-2.8 1.8-4.2.9-1.4-.9-1.8-2.8-.9-4.2C38.3 69.3 50.6 62.6 64 62.6s25.7 6.7 33.1 17.8c.9 1.4.5 3.2-.9 4.2-.4.3-1 .5-1.6.5z" fill="#464C55"/></svg>