<svg enable-background="new 0 0 128 128" viewBox="0 0 128 128" xmlns="http://www.w3.org/2000/svg"><path d="m98.8 60.9 3.8 5.9h-3.8v44.2h-69.6v-43.1l-5.4-1.6 5.4-5.4 34.8-36.1z" fill="#fff"/><g fill="#c7d7e2"><path d="m40.3 111v-39.2h19.3v39.2"/><path d="m64 17-46.4 47 5.9 5.9 40.5-42.1 40.5 42.1 5.9-5.9-11.6-11.7v-27.5h-11.6v15.7z"/><path d="m48.5 58.2c3.1-17.4 27.8-17.4 30.9 0z"/></g><path d="m98.8 114h-69.6c-1.7 0-3-1.3-3-3v-40.1h-4.7c-.8 0-1.6-.3-2.2-.9l-3.9-3.9c-1.2-1.2-1.2-3 0-4.2l46.4-47c1.1-1.1 3.1-1.1 4.3 0l18 18.3v-8.4c0-1.7 1.3-3 3-3h11.6c1.7 0 3 1.3 3 3v26.2l10.7 10.9c1.2 1.2 1.2 3 0 4.2l-3.9 3.9c-.6.6-1.3.9-2.1.9h-4.7v40.1c.1 1.7-1.3 3-2.9 3zm-66.6-6h63.5v-40.1c0-.8.3-1.6.9-2.1.6-.6 1.4-.9 2.1-.9h6.5l.9-.9-9.5-9.6c-.6-.6-.9-1.3-.9-2.1v-24.5h-5.6v12.7c0 1.2-.7 2.3-1.9 2.8-1.1.5-2.4.2-3.3-.7l-20.9-21.3-42.1 42.7.9.9h6.5c.8 0 1.6.3 2.1.9.6.6.9 1.3.9 2.1z" fill="#454b54"/><path d="m68.4 71.8h19.3v19.6h-19.3z" fill="#c7d7e2"/><ellipse cx="49.9" cy="81.6" fill="#e3f3f7" rx="3.9" ry="3.9"/></svg>