<svg viewBox="0 0 128 128" xmlns="http://www.w3.org/2000/svg"><path d="M24 105h80c5.5 0 10-4.5 10-10V33c0-5.5-4.5-10-10-10H24c-5.5 0-10 4.5-10 10v62c0 5.5 4.5 10 10 10z" fill="#fff"/><path d="M112.6 10.9c-2.7 0-5 1.2-6.6 3.1-1.5-1.8-3.9-3.1-6.6-3.1-4.7 0-8.4 3.8-8.4 8.4 0 2.5 1.2 5 3.1 6.6l10.6 8.7c.3.3.8.5 1.3.5s.9-.1 1.3-.5l10.6-8.7.1-.1h.1l.1-.1c1.7-1.5 2.8-3.8 2.8-6.2 0-4.7-3.8-8.6-8.4-8.6z" fill="#ff5576"/><g fill="#444b54"><path d="M104 108H24c-7.2 0-13-5.8-13-13V46c0-1.7 1.3-3 3-3s3 1.3 3 3v49c0 3.9 3.1 7 7 7h80c3.9 0 7-3.2 7-6V51c0-1.7 1.3-3 3-3s3 1.3 3 3v45c0 6.4-6.1 12-13 12z"/><path d="M64 69c-14.2 0-27.4-5.6-37.2-15.9-1.1-1.2-1.1-3.1.1-4.2s3.1-1.1 4.2.1c8.7 9 20.3 14 32.8 14s24.2-5 32.8-14c1.1-1.2 3-1.2 4.2-.1s1.2 3 .1 4.2C91.4 63.4 78.2 69 64 69zM14 36c-1.7 0-3-1.3-3-3 0-7.2 5.8-13 13-13h52c1.7 0 3 1.3 3 3s-1.3 3-3 3H24c-3.9 0-7 3.1-7 7 0 1.7-1.3 3-3 3z"/></g></svg>