<svg viewBox="0 0 128 128" xmlns="http://www.w3.org/2000/svg"><path d="M107 50c0 23.7-19.3 43-43 43-10.3 0-19.8-3.6-27.2-9.7C27.1 75.4 21 63.4 21 50 21 26.3 40.3 7 64 7s43 19.3 43 43z" fill="#fff"/><path d="M64 61.4c-10.3 0-18.6-8.4-18.6-18.6S53.7 24.1 64 24.1s18.6 8.4 18.6 18.6S74.3 61.4 64 61.4zm0-31.3c-7 0-12.6 5.7-12.6 12.6S57 55.4 64 55.4s12.6-5.7 12.6-12.6S71 30.1 64 30.1zM44.8 79c-.9 0-1.7-.4-2.3-1.1-1.1-1.3-.9-3.2.4-4.2 5.9-5 13.4-7.7 21.1-7.7 1.7 0 3 1.3 3 3s-1.3 3-3 3c-6.3 0-12.5 2.2-17.3 6.3-.6.4-1.2.7-1.9.7z" fill="#71c2ff"/><path d="M83 79c-.7 0-1.4-.2-1.9-.7-4.8-4-11-6.3-17.3-6.3-1.7 0-3-1.3-3-3s1.3-3 3-3c7.7 0 15.2 2.7 21.2 7.7 1.3 1.1 1.4 3 .4 4.2-.7.7-1.5 1.1-2.4 1.1z" fill="#71c2ff"/><path d="M64 96c-10.6 0-21-3.7-29.1-10.4C24.1 76.8 18 63.8 18 50 18 24.6 38.6 4 64 4s46 20.6 46 46-20.6 46-46 46zm0-86c-22.1 0-40 17.9-40 40 0 12 5.3 23.3 14.7 31 7.1 5.8 16.1 9 25.3 9 22.1 0 40-17.9 40-40S86.1 10 64 10z" fill="#444b54"/><g fill="#71c2ff"><path d="M94 111H34c-1.7 0-3-1.3-3-3s1.3-3 3-3h60c1.7 0 3 1.3 3 3s-1.3 3-3 3zm-25 15H44c-1.7 0-3-1.3-3-3s1.3-3 3-3h25c1.7 0 3 1.3 3 3s-1.3 3-3 3zm15 0c-.8 0-1.6-.3-2.1-.9-.6-.6-.9-1.3-.9-2.1 0-.2 0-.4.1-.6 0-.2.1-.4.2-.6s.2-.3.3-.5.2-.3.4-.5c1.1-1.1 3.1-1.1 4.2 0 .6.6.9 1.3.9 2.1s-.3 1.6-.9 2.1c-.6.7-1.4 1-2.2 1z"/></g></svg>