<svg xmlns="http://www.w3.org/2000/svg" viewBox="0 0 128 128"><circle cx="64" cy="64" r="50" fill="#FFFFFF"/><path d="M64 117c-29.2 0-53-23.8-53-53s23.8-53 53-53 53 23.8 53 53-23.8 53-53 53zm0-100c-25.9 0-47 21.1-47 47s21.1 47 47 47 47-21.1 47-47-21.1-47-47-47z" fill="#444B54"/><path d="M64 97c-18.2 0-33-14.8-33-33 0-11.8 6.3-22.7 16.5-28.6 1.4-.8 3.3-.3 4.1 1.1.8 1.4.3 3.3-1.1 4.1C42.2 45.4 37 54.4 37 64c0 14.9 12.1 27 27 27s27-12.1 27-27c0-9.6-5.2-18.6-13.5-23.4-1.4-.8-1.9-2.7-1.1-4.1.8-1.4 2.7-1.9 4.1-1.1A33.05 33.05 0 0 1 97 64c0 18.2-14.8 33-33 33z" fill="#71C2FF"/><path d="M64 52c-1.7 0-3-1.3-3-3V29c0-1.7 1.3-3 3-3s3 1.3 3 3v20c0 1.7-1.3 3-3 3z" fill="#71C2FF"/></svg>