<svg viewBox="0 0 128 128" xmlns="http://www.w3.org/2000/svg"><path d="M15.5 72.1C8.4 64.9 4 54.9 4 44 4 21.9 21.9 4 44 4s40 17.9 40 40-17.9 40-40 40H4z" fill="#fff"/><path d="M32 87H4c-1.2 0-2.3-.7-2.8-1.8s-.2-2.4.6-3.3l9.5-9.9C4.7 64.2 1 54.4 1 44 1 20.3 20.3 1 44 1c18.9 0 35.4 12.1 41 30.1a3.037 3.037 0 0 1-5.8 1.8C74.4 17.4 60.3 7 44 7 23.6 7 7 23.6 7 44c0 9.8 3.8 19 10.6 26 1.1 1.2 1.2 3 0 4.2L11.1 81H32c1.7 0 3 1.3 3 3s-1.3 3-3 3z" fill="#71c2ff"/><path d="M112.5 112.1C119.6 104.9 124 95 124 84c0-22.1-17.9-40-40-40S44 61.9 44 84s17.9 40 40 40h40z" fill="#fff"/><g fill="#444b54"><path d="M124 127H84c-23.7 0-43-19.3-43-43s19.3-43 43-43 43 19.3 43 43c0 10.4-3.7 20.2-10.4 28l9.5 9.9c.8.9 1.1 2.1.6 3.3-.4 1.1-1.5 1.8-2.7 1.8zM84 47c-20.4 0-37 16.6-37 37s16.6 37 37 37h32.9l-6.6-6.8c-1.1-1.2-1.1-3 0-4.2 6.9-7 10.6-16.2 10.6-26 .1-20.4-16.5-37-36.9-37z"/><path d="M99 80H69c-1.7 0-3-1.3-3-3s1.3-3 3-3h30c1.7 0 3 1.3 3 3s-1.3 3-3 3zM84 95H69c-1.7 0-3-1.3-3-3s1.3-3 3-3h15c1.7 0 3 1.3 3 3s-1.3 3-3 3zm15 0c-.8 0-1.6-.3-2.1-.9-.6-.5-.9-1.3-.9-2.1 0-.2 0-.4.1-.6 0-.2.1-.4.2-.6s.2-.3.3-.5.2-.3.4-.5c.7-.7 1.7-1 2.7-.8.2 0 .4.1.6.2s.4.2.5.3c.2.1.3.2.4.4.1.1.3.3.4.5s.2.3.3.5.1.4.2.6c0 .2.1.4.1.6 0 .8-.3 1.6-.9 2.1l-.4.4c-.2.1-.3.2-.5.3s-.4.1-.6.2c-.4-.1-.6-.1-.8-.1z"/></g></svg>