<svg viewBox="0 0 128 128" xmlns="http://www.w3.org/2000/svg"><path d="M93.1 56H80.9c-2.4 0-4.4-2-4.4-4.4v-2c1.4-3.5 2.5-7 3.2-10.6.3-1.3.5-2.6.7-3.9l.6-4c.6-4.4-2.5-8.4-6.8-9-4.4-.6-8.4 2.5-9 6.8l-.6 4A48.07 48.07 0 0 1 44 66H21v40h13l9.4 3.5c4.4 1.6 9.1 2.5 13.7 2.5h29.6c4.8 0 8.9-3.4 9.7-8.1l6.1-33.9.4-2.3C104 61.6 99.3 56 93.1 56z" fill="#fff"/><g fill="#444b54"><path d="M86.6 115H56.8c-4.8 0-9.4-.8-13.9-2.5-1.6-.6-2.3-2.3-1.8-3.9.6-1.6 2.3-2.3 3.9-1.8 3.8 1.4 7.7 2.1 11.8 2.1h29.8c3.4 0 6.3-2.4 6.9-5.8l6.4-36c.4-2-.2-4.1-1.5-5.7S95.1 59 93.1 59H73c-1.7 0-3-1.3-3-3s1.3-3 3-3h20.1c3.9 0 7.5 1.7 10 4.7s3.5 6.8 2.8 10.6l-6.4 36c-1.2 6.2-6.6 10.7-12.9 10.7zM34 109H24c-1.7 0-3-1.3-3-3s1.3-3 3-3h7V69h-7c-1.7 0-3-1.3-3-3s1.3-3 3-3h10c1.7 0 3 1.3 3 3v40c0 1.7-1.3 3-3 3z"/><path d="M44 69c-1 0-1.9-.5-2.5-1.3-.9-1.4-.6-3.2.8-4.2 10.5-7.2 17.5-18.5 19.2-31l.6-4c.4-2.9 1.9-5.5 4.3-7.3 2.3-1.8 5.2-2.5 8.1-2.1s5.5 1.9 7.3 4.3 2.5 5.2 2.1 8.1l-.6 4c-.6 4.1-1.5 8.1-2.8 12-.5 1.6-2.2 2.4-3.8 1.9s-2.4-2.2-1.9-3.8c1.2-3.5 2-7.2 2.5-10.9l.6-4c.2-1.3-.2-2.6-1-3.7s-2-1.8-3.3-1.9c-1.3-.2-2.6.2-3.7 1s-1.8 2-1.9 3.3l-.6 4c-2 14.2-9.9 27-21.8 35.2-.4.2-1 .4-1.6.4z"/></g></svg>