<svg xmlns="http://www.w3.org/2000/svg" viewBox="0 0 128 128"><path fill="#F7EBDE" d="M76 99.2v6.5c-3.4 12.1-20.5 12.1-24 0v-6.5"/><path fill="#F37778" d="M98.2 114.8l-22.2-9c-1.5 5.3-7.7 8.3-12.2 8.9v.1c-.7 0-1.9-.1-2-.1-4.3-.8-8.3-3.7-9.7-8.8l-22.2 9c22.1 7 46.1 7 68.3-.1z"/><path fill="#454B54" d="M64 117.8c-7.1 0-12.9-4.4-14.9-11.2-.5-1.6.5-3.3 2.1-3.7 1.6-.5 3.3.5 3.7 2.1 1.4 5.1 5.7 6.9 9.1 6.9 3.5 0 7.7-1.8 9.1-6.9.5-1.6 2.1-2.5 3.7-2.1 1.6.5 2.5 2.1 2.1 3.7-2 6.8-7.8 11.2-14.9 11.2z"/><path fill="#454B54" d="M98.2 117.8c-.4 0-.8-.1-1.1-.2l-22.2-9c-1.5-.6-2.3-2.4-1.6-3.9s2.4-2.3 3.9-1.6l22.2 9c1.5.6 2.3 2.4 1.6 3.9-.5 1-1.6 1.8-2.8 1.8zm-68.4 0c-1.2 0-2.3-.7-2.8-1.9-.6-1.5.1-3.3 1.6-3.9l22.2-9c1.5-.6 3.3.1 3.9 1.6.6 1.5-.1 3.3-1.6 3.9l-22.2 9c-.3.2-.7.3-1.1.3z"/><g><path fill="#F7EBDE" d="M96.4 57.1c0-26.3-13.2-39.9-32.4-39.9S31.6 30.8 31.6 57.1c-6.2.5-4.8 14.6 2.3 13.8 9 25.2 21.6 31.8 30.1 31.8S85.1 96 94.1 70.9c7.1.8 8.5-13.4 2.3-13.8z"/><path fill="#454B54" d="M64 105.7c-6.1 0-21.4-3.2-32.3-31.9-4.4-.9-6.9-5.6-7.1-10.2-.1-4 1.4-7.2 4-8.6.7-25.6 13.8-40.8 35.4-40.8s34.7 15.2 35.4 40.7c2.6 1.4 4.1 4.6 4 8.6-.2 4.6-2.6 9.3-7.1 10.2-10.9 28.8-26.2 32-32.3 32zM33.9 67.9c1.3 0 2.4.8 2.8 2C46.3 96.8 59 99.7 64 99.7s17.7-2.9 27.3-29.8c.5-1.3 1.8-2.1 3.2-2h.2c1.5 0 2.6-2.4 2.7-4.6.1-1.5-.4-3.2-1.2-3.2-1.6-.1-2.8-1.4-2.8-3 0-23.4-10.7-36.9-29.4-36.9S34.6 33.7 34.6 57.1c0 1.6-1.2 2.9-2.8 3-.8.1-1.2 1.7-1.2 3.2.1 2.2 1.2 4.6 2.7 4.6H33.9z"/></g><g><path fill="#F8E390" d="M29.2 48c1.4-.4 2.4-1.6 2.4-3v-4c0-12.8 7.9-23.8 19.1-28.7v-2.1C50.7 8.4 52.2 7 54 7h20.2c1.8 0 3.2 1.4 3.2 3.2v2.2h.1c11.2 4.9 19 15.9 19 28.6v3.9c0 1.4 1 2.6 2.4 3l2.2.6v9.9H27v-9.9l2.2-.5z"/><path fill="#454B54" d="M101 61.5H27c-1.7 0-3-1.3-3-3v-9.9c0-1.3.9-2.5 2.2-2.9l2.2-.6c.1 0 .2-.1.2-.1v-4c0-12.9 7.5-24.7 19.1-30.6v-.2C47.7 6.8 50.5 4 54 4h20.1c3.4 0 6.2 2.8 6.2 6.1v.2C92 16.3 99.5 28.1 99.5 41v3.9s0 .1.2.1l2.2.6c1.3.4 2.2 1.5 2.2 2.9v9.9c-.1 1.7-1.4 3.1-3.1 3.1zm-71-6h68v-4.6c-2.7-.7-4.5-3.2-4.5-5.9v-4c0-11.1-6.7-21.3-17.1-25.9-1.1-.4-2-1.5-2-2.8v-2.2c0-.1-.1-.1-.2-.1H54c-.2 0-.2.1-.2.1v2.1c0 1.2-.7 2.3-1.8 2.7-10.5 4.6-17.3 14.8-17.3 26v3.9c0 2.7-1.9 5.2-4.5 5.9v4.8z"/><path fill="#454B54" d="M101 52.1H50.7c-1.7 0-3-1.3-3-3s1.3-3 3-3H101c1.7 0 3 1.3 3 3s-1.3 3-3 3zM50.7 29.6c-1.7 0-3-1.3-3-3V12.3c0-1.7 1.3-3 3-3s3 1.3 3 3v14.4c0 1.6-1.3 2.9-3 2.9zm26.7.1c-1.7 0-3-1.3-3-3V12.3c0-1.7 1.3-3 3-3s3 1.3 3 3v14.4c0 1.6-1.3 3-3 3z"/></g></svg>