<svg viewBox="0 18.676 198 163.761" xmlns="http://www.w3.org/2000/svg"><path d="M59.554 26.39c15.822 0 30.106 6.812 39.336 17.58 9.67-10.768 23.952-17.58 39.336-17.58 29.007 0 52.961 23.074 52.961 51.863 0 16.26-7.691 30.543-19.339 39.994L98.89 174.725l-71.64-55.378c-12.746-9.67-20.657-24.394-20.657-41.094 0-28.349 23.514-51.863 52.961-51.863" fill="#FF636B"/><path d="M138.226 26.39c-4.982 0-9.849.714-14.48 2.046 21.851 6.232 37.774 25.95 37.774 49.596 0 16.261-7.911 22.415-19.338 39.996L98.89 174.725l72.958-56.478c11.648-9.451 19.339-23.734 19.339-39.994 0-28.789-23.954-51.863-52.961-51.863" fill="rgba(0, 0, 0, 0.09)"/><path d="M59.554 42.871c-19.999 0-36.04 15.822-36.04 35.382 0 3.735 2.856 6.592 6.593 6.592 3.515 0 6.593-2.857 6.593-6.592 0-12.308 10.327-22.196 22.854-22.196 3.735 0 6.593-2.857 6.593-6.593 0-3.736-2.858-6.593-6.593-6.593" fill="#FAE6F0"/><path d="M98.89 181.316c-1.318 0-2.857-.438-3.955-1.317l-71.64-55.598C8.571 113.414 0 96.491 0 78.253c0-32.305 26.59-58.456 59.554-58.456 14.942 0 29.007 5.274 39.556 14.943 10.767-9.449 24.832-14.943 39.336-14.943 32.743 0 59.554 26.151 59.554 58.456 0 17.36-7.911 33.842-21.756 45.049l-73.398 56.697c-1.1.879-2.637 1.317-3.956 1.317zM59.554 32.982c-25.492 0-46.369 20.437-46.369 45.271 0 14.063 6.593 27.249 18.021 35.6l67.684 52.521 69.003-53.401c10.549-8.57 16.702-21.316 16.702-34.72 0-24.834-20.877-45.271-46.369-45.271-13.185 0-25.711 5.713-34.502 15.383-1.319 1.319-3.076 2.199-5.054 2.199-1.978 0-3.735-.88-4.834-2.199-8.351-9.67-20.877-15.383-34.282-15.383z" fill="#454B54"/><circle cx="140.644" cy="139.544" r="16.482" transform="translate(-41.754 -39.757)" fill="#FFF"/><path d="M98.89 134.949c-3.737 0-6.592-2.857-6.592-6.592V99.788c0-3.736 2.855-6.592 6.592-6.592 3.735 0 6.593 2.856 6.593 6.592v28.569c0 3.735-2.858 6.592-6.593 6.592z" fill="#FFF"/></svg>