<svg version="1" xmlns="http://www.w3.org/2000/svg" width="1056" height="1056" viewBox="0 0 792.000000 792.000000"><path d="M227.7 73.6c-.1.1-3.8.5-8.2.8-10.8.8-16.5 1.5-19.5 2.1-1.4.3-3.8.7-5.5 1-1.6.3-4.1.8-5.5 1-1.4.3-3.4.7-4.5.9-1.1.2-4 .9-6.5 1.6-2.5.7-4.5 1.1-4.5 1.1 0-.5-28 9.5-32.5 11.6-15.6 7.3-28.3 14.1-28.8 15.5-.2.4-.8.8-1.3.8-1.1 0-7.2 4.2-7.7 5.2-.2.5-.8.8-1.3.8-1.2 0-10.3 6.7-18.8 13.9-9.4 7.8-22.7 21.3-30.3 30.6-6.2 7.7-19.8 26.7-19.8 27.8 0 .3-2 4-4.5 8.1-2.5 4.2-4.6 7.9-4.7 8.4-.1.4-1.7 4-3.6 8.1-1.9 4.1-3.5 7.9-3.7 8.5-.1.6-.6 2-1 3.1-2.6 6.5-4.5 11.7-4.9 13.7-.3 1.3-1.4 5.4-2.6 9.3-2 6.9-2.8 10.1-3.4 14-.2 1.1-.6 3.6-1 5.5C1 281.5.5 288.3.5 307c.1 16 .7 27.5 2 34 .2 1.4 1 5.4 1.6 9 .9 5.1 4.2 17.9 7.3 28.5 2.3 7.8 8.6 22.9 13.8 33 2.3 4.4 4.7 9 5.2 10.2.6 1.3 1.4 2.3 1.9 2.3.4 0 .7.5.7 1.1 0 1.2 8 13.3 9.2 13.7.4.2.8.8.8 1.4 0 .6 2 3.6 4.6 6.7 2.5 3.1 5.9 7.4 7.7 9.5 5.9 7.3 21.2 22 31.2 30.1 5.5 4.4 10.5 8.4 11.1 9 .6.5 2.2 1.7 3.4 2.5 1.2.8 2.8 2 3.4 2.5.6.6 2.9 2.4 5.1 4 2.2 1.7 4.6 3.5 5.5 4.2 3 2.4 18.6 14.6 21.3 16.7 1.6 1.1 3.9 2.9 5 3.8 1.2 1 4.7 3.6 7.7 6 3 2.3 6 4.6 6.5 5.1.6.4 7.8 6 16 12.3 8.3 6.4 16.4 12.7 18 14 1.7 1.3 5.9 4.6 9.5 7.3 3.6 2.8 7.2 5.7 8.1 6.6.9.8 1.8 1.5 2.1 1.5.3 0 1.9 1.1 3.4 2.4 1.6 1.4 10.6 8.4 19.9 15.6 9.4 7.2 17.9 13.9 19 14.8 1.1 1 3.6 2.8 5.5 4.2 1.9 1.3 4 2.9 4.7 3.6.6.6 5.6 4.4 11 8.5s10 7.6 10.3 7.9c.3.3 4.6 3.7 9.5 7.5 5 3.8 10.6 8.2 12.5 9.7 1.9 1.6 4 3.2 4.5 3.6.6.4 5.1 3.9 10 7.7 5 3.8 9.5 7.3 10 7.7.9.7 8.2 6.4 11 8.6.6.4 4.2 3.2 8 6.2 3.9 3 12 9.2 18 14 17.2 13.4 20.4 15.1 28.2 15.5 7.5.3 18.2-5 27-13.4 1.2-1.2 2.5-2.1 2.8-2.1.6 0 2.3-1.3 5.4-4.1 1-.9 5.3-4.3 9.6-7.5s10.2-7.7 13.1-9.9c5.2-4 6.8-5.3 20.4-15.8 11.8-9.2 12.8-10 26-20.2 6.9-5.2 14-10.8 15.9-12.3 1.8-1.5 4.1-3.1 5-3.6.9-.5 2.3-1.8 3.2-2.8.9-1 1.9-1.8 2.3-1.8.3 0 3.9-2.6 7.9-5.8 3.9-3.2 12.2-9.6 18.2-14.2 6.1-4.7 11.5-8.8 12-9.2.6-.5 7.8-6.1 16-12.4 8.3-6.4 16.2-12.5 17.7-13.7 1.4-1.2 3.7-2.9 4.9-3.7 1.2-.8 2.9-2.2 3.8-3 .9-.8 3.2-2.6 5.1-4 1.9-1.4 4.4-3.2 5.5-4.2 1.7-1.4 21.8-16.9 29.9-23.1 3.7-2.8 31.6-24.4 33.6-26 .9-.7 3.3-2.5 5.5-4.2 2.2-1.6 4.6-3.5 5.3-4.2.8-.7 3.4-2.7 5.9-4.5 2.5-1.7 5.4-3.8 6.3-4.7.9-.9 3.6-3.2 6-5.1 10-8 26.9-25.9 36.4-38.5 2.5-3.3 4.9-6.5 5.4-7 4.6-5.6 16.6-27.8 23.5-43.5 2.9-6.7 6.6-17 6-17-.3 0-.1-.6.4-1.3 1-1.2 5.4-17.4 6.9-25.2.4-2.2.9-4.7 1.1-5.5.4-2 1.1-7.3 2-14.5 1.4-11.9.6-53.5-1-56.3-.3-.4-.7-2.8-.8-5.1-.2-2.3-.7-4.5-1.1-4.7-.5-.3-.6-.9-.4-1.3 1-1.6-4.9-23.4-10.3-37.9-4.1-11-16-35.4-19.4-39.7-.4-.6-2.8-4.1-5.3-7.8-2.5-3.8-4.9-7.4-5.4-8-.6-.7-3.9-4.8-7.4-9.2-6.7-8.5-20.1-22.3-28-29-2.6-2.2-6.4-5.5-8.4-7.2-2-1.8-4-3.3-4.4-3.3-.4 0-1.3-.6-2-1.3-2.2-2.2-16.6-11.7-17.8-11.7-.5 0-1-.3-1-.8 0-.4-1-1.2-2.3-1.8-1.2-.6-6.9-3.6-12.7-6.5-5.8-3-12.5-6.2-15-7.2s-5.4-2.3-6.5-2.8c-4-1.8-23.2-7.8-31.8-9.8-9-2.1-11.1-2.5-18.2-3.6-2.3-.3-5.1-.7-6.3-1-12-2.3-48.7-2.3-61.2 0-1.4.2-5.4.9-9 1.5-8.2 1.3-10.6 1.7-13.3 2.6-1.2.4-2.9.8-3.7.9-1.6.1-6.4 1.3-9 2.1-.8.3-1.5.5-1.5.4 0-.2-17.7 6-22.5 8-21.1 8.4-43.7 22-64.8 39-2.6 2.1-4.6 3-5 2.4-1.8-2.6-29.1-23.4-30.7-23.4-.3 0-2.9-1.6-5.9-3.5-3-1.9-5.8-3.5-6.1-3.5-.4 0-1.9-.9-3.3-1.9-1.5-1-3.1-1.9-3.5-1.9-.4-.1-3.7-1.5-7.3-3.2-8.2-3.9-24.4-10-26.5-10-.9 0-1.9-.3-2.3-.7-.3-.4-1.2-.8-1.9-.9-.7-.2-3.9-1-7.2-1.9-7.5-2-12.8-3.2-18-3.9-2.3-.4-5.2-.8-6.5-1.1-8.9-1.7-22.2-2.8-35.8-2.9-6.8-.1-12.4-.1-12.5 0z"/></svg>